<?xml version="1.0" standalone="no"?>
<!DOCTYPE svg PUBLIC "-//W3C//DTD SVG 20010904//EN"
 "http://www.w3.org/TR/2001/REC-SVG-20010904/DTD/svg10.dtd">
<svg version="1.0" xmlns="http://www.w3.org/2000/svg"
 width="1138.000000pt" height="1280.000000pt" viewBox="0 0 1138.000000 1280.000000"
 preserveAspectRatio="xMidYMid meet">
<metadata>
Created by potrace 1.15, written by Peter Selinger 2001-2017
</metadata>
<g transform="translate(0.000000,1280.000000) scale(0.100000,-0.100000)"
fill="#9e9e9e" stroke="none">
<path d="M2527 12488 c-163 -172 -344 -369 -402 -438 -388 -453 -771 -1010
-949 -1380 -70 -147 -94 -209 -103 -277 -7 -50 10 -77 55 -88 37 -9 62 -34 62
-60 0 -13 -27 -64 -60 -114 -98 -150 -119 -203 -99 -260 12 -33 28 -41 104
-50 38 -5 51 -10 53 -25 2 -10 -23 -76 -56 -145 -102 -213 -110 -260 -68 -381
40 -114 66 -317 96 -760 33 -473 59 -671 101 -750 11 -19 19 -42 19 -50 0 -35
-55 -123 -142 -226 -154 -184 -181 -238 -199 -390 -16 -134 -6 -582 15 -695
24 -132 70 -259 151 -424 126 -255 269 -451 489 -671 254 -253 486 -395 686
-419 68 -9 105 -35 164 -118 68 -95 125 -197 276 -486 231 -446 385 -705 519
-874 134 -169 150 -217 158 -477 6 -190 -6 -339 -29 -387 -14 -28 -15 -29 -98
-64 -142 -61 -615 -373 -752 -495 -29 -26 -71 -44 -195 -83 -87 -27 -196 -60
-243 -71 -281 -71 -734 -214 -945 -300 -55 -22 -198 -84 -318 -138 l-219 -97
-200 -400 c-243 -485 -318 -647 -363 -784 -19 -57 -35 -105 -35 -107 0 -8
3488 -3 4065 6 684 11 1104 25 1118 39 15 15 -29 98 -80 147 -70 69 -156 121
-364 222 -286 139 -594 334 -737 467 -51 47 -64 65 -59 80 7 16 16 17 95 12
211 -14 623 -141 927 -287 169 -81 304 -137 355 -149 54 -12 53 3 -4 82 -45
62 -76 100 -279 343 -170 202 -244 318 -340 525 -25 53 -49 99 -55 102 -13 9
-22 -50 -22 -153 -1 -142 -37 -216 -138 -283 -67 -45 -161 -67 -287 -67 -93 0
-257 20 -323 39 -59 18 -119 59 -155 108 -134 184 -206 484 -195 814 4 119 7
142 29 184 13 27 31 53 40 58 25 16 84 -1 136 -38 107 -77 261 -163 518 -290
500 -246 574 -265 1170 -284 863 -29 1351 69 1885 379 80 46 179 103 220 127
99 58 171 80 204 65 60 -27 87 -253 52 -421 -63 -292 -269 -629 -521 -851
-167 -147 -357 -266 -673 -421 -123 -60 -249 -127 -280 -148 -59 -40 -131
-111 -152 -151 -23 -43 -60 -164 -60 -196 0 -32 1 -33 58 -41 70 -10 4088 -6
4753 4 l477 8 -247 511 c-136 281 -274 557 -307 614 -78 138 -162 226 -280
296 -232 139 -693 314 -1219 464 -423 120 -452 131 -595 228 -426 289 -557
375 -649 421 -57 28 -112 51 -123 51 -61 0 -88 60 -88 198 0 167 43 272 185
457 368 478 414 552 695 1100 152 299 170 331 222 403 54 73 97 98 183 107
138 14 284 77 448 195 91 65 342 320 426 433 153 205 292 457 384 697 82 212
99 317 100 595 1 300 -17 380 -116 528 -63 94 -179 217 -253 268 -24 16 -76
43 -116 59 -92 37 -128 76 -158 172 -21 68 -22 84 -17 268 12 399 97 879 169
951 16 16 28 37 26 46 -2 10 -30 32 -63 49 -38 19 -61 37 -63 50 -2 11 16 41
43 73 81 94 95 140 70 216 -4 15 3 32 24 59 39 48 40 84 7 232 -34 152 -46
263 -56 534 -11 273 -20 370 -61 610 -35 206 -73 372 -129 563 -108 371 -228
606 -395 773 -143 144 -272 227 -656 423 l-236 121 -2856 0 -2855 0 -295 -312z
m5219 -1489 c146 -14 231 -34 271 -65 46 -35 97 -148 127 -281 36 -161 71
-221 155 -266 156 -85 198 -245 216 -817 11 -343 29 -446 81 -463 131 -43 476
-397 550 -563 55 -125 84 -405 84 -819 0 -420 -12 -591 -75 -1045 -19 -135
-46 -351 -60 -480 -61 -572 -83 -709 -146 -920 -74 -245 -179 -491 -394 -921
-291 -581 -387 -718 -800 -1138 -590 -600 -1306 -1081 -1808 -1214 -124 -32
-335 -30 -469 6 -260 71 -513 203 -973 508 -685 453 -1039 811 -1402 1414
-183 303 -450 865 -636 1336 -129 326 -141 401 -167 1079 -16 396 -50 692
-110 954 -46 195 -60 313 -60 496 0 318 64 606 194 875 65 136 126 229 234
360 144 173 187 289 236 635 32 219 45 400 34 452 -19 90 61 414 145 586 37
76 68 96 181 111 193 27 430 9 936 -73 418 -67 753 -96 1210 -103 476 -7 525
0 648 92 126 93 199 113 577 155 393 45 505 63 557 91 11 6 41 15 67 19 70 12
473 11 597 -1z m2365 -3588 c70 -71 178 -223 210 -297 34 -81 42 -171 30 -338
-22 -284 -83 -510 -210 -771 -184 -380 -426 -674 -686 -832 -139 -84 -316
-133 -360 -99 -20 15 -20 15 -1 48 41 71 68 134 98 227 40 125 54 150 86 162
15 5 34 19 42 32 49 78 90 161 147 297 86 207 121 276 160 317 38 41 60 40 88
-4 11 -18 23 -32 28 -33 12 0 8 86 -18 354 -14 142 -25 271 -25 288 l0 30 153
-4 c98 -2 160 -8 175 -16 41 -23 44 -52 31 -265 -9 -138 -10 -200 -2 -208 16
-16 88 65 128 146 43 86 59 168 50 255 -12 117 -55 180 -147 214 -24 9 -68 25
-98 36 -127 46 -150 75 -161 202 -4 49 -18 130 -30 179 -27 102 -23 114 34 98
21 -5 54 -9 74 -7 31 3 38 8 44 32 5 16 13 33 20 37 23 14 75 -15 140 -80z
m-8851 -181 c65 -161 120 -196 75 -47 -19 63 -12 80 29 71 41 -8 75 -40 96
-89 29 -65 33 -115 13 -155 -15 -29 -26 -36 -68 -46 -98 -21 -165 -78 -210
-176 -49 -106 -42 -205 21 -330 74 -145 119 -110 130 99 8 143 19 173 70 198
55 26 169 26 207 1 36 -24 70 -83 98 -170 29 -93 30 -168 2 -198 -31 -34 -43
-90 -43 -208 0 -121 7 -122 56 -6 49 117 97 147 131 84 19 -35 20 -71 12 -358
l-4 -135 46 -95 c51 -106 201 -335 275 -421 27 -31 70 -71 97 -88 26 -18 47
-36 47 -40 0 -33 -95 -54 -181 -40 -161 26 -394 224 -648 553 -195 251 -366
597 -412 831 -21 104 -18 482 5 603 20 109 26 126 73 212 31 54 38 61 44 45 5
-11 22 -54 39 -95z"/>
<path d="M3410 8045 c-273 -41 -301 -51 -459 -170 -213 -161 -402 -355 -459
-471 -33 -68 -25 -78 45 -58 29 8 71 14 95 12 40 -3 44 -6 55 -41 18 -53 62
-115 154 -215 47 -51 86 -104 96 -130 16 -44 16 -47 -6 -106 -39 -105 -52
-158 -58 -252 -6 -96 2 -161 17 -134 4 8 20 64 35 125 72 289 165 449 297 510
44 21 68 25 145 25 134 0 139 -8 86 -133 -109 -263 56 -536 373 -617 99 -26
169 -25 246 1 189 63 339 278 339 485 0 80 -16 129 -61 186 -55 68 -42 78 98
78 158 0 198 -30 315 -237 86 -153 156 -263 168 -263 17 0 9 31 -27 113 -51
114 -50 161 5 291 56 130 79 225 92 371 22 260 37 320 103 392 60 67 95 168
82 238 -4 19 -13 35 -20 35 -7 0 -43 -24 -80 -54 -36 -30 -82 -60 -103 -67
-49 -16 -236 -7 -418 21 -736 110 -818 115 -1155 65z"/>
<path d="M6207 8073 c-4 -3 -7 -32 -7 -64 0 -100 41 -179 169 -330 80 -94 118
-182 131 -299 10 -100 22 -150 64 -265 22 -62 23 -76 14 -125 -5 -30 -34 -108
-64 -172 -60 -130 -79 -193 -52 -170 21 17 81 111 159 251 115 205 162 240
317 241 88 0 132 -10 132 -29 0 -5 -16 -28 -35 -51 -180 -215 58 -667 362
-687 140 -10 311 51 417 148 152 139 193 310 117 489 -17 39 -31 80 -31 91 0
32 36 41 139 37 82 -3 103 -7 142 -30 123 -72 205 -217 276 -488 19 -74 39
-139 44 -145 5 -5 10 11 11 40 4 145 -11 235 -57 339 -27 62 -31 105 -14 139
7 12 51 63 100 114 91 96 131 149 168 221 12 24 29 46 37 49 8 3 47 -17 90
-46 42 -28 80 -51 85 -51 58 0 -46 172 -211 352 -177 192 -374 318 -593 377
-154 41 -204 46 -492 46 -298 -1 -316 -2 -790 -70 -132 -19 -279 -35 -326 -35
-98 0 -140 16 -225 88 -50 42 -64 48 -77 35z"/>
<path d="M6720 4304 c-302 -54 -338 -56 -1285 -63 -650 -5 -887 -10 -908 -19
-42 -18 -44 -39 -6 -78 45 -47 222 -159 306 -194 130 -54 378 -99 698 -126
238 -20 754 -15 877 9 153 30 171 40 288 156 139 137 271 316 254 343 -7 11
-15 10 -224 -28z"/>
</g>
</svg>
